<svg width="34" height="34" viewBox="0 0 34 34" fill="none" xmlns="http://www.w3.org/2000/svg">
<path d="M30.8351 17.0066C30.756 11.2492 27.2319 6.09411 21.8344 4.03684C16.4023 1.96497 9.99147 3.69286 6.31522 8.18724C2.65624 12.661 2.10241 19.1044 5.08272 24.0915C8.05639 29.0687 13.8862 31.6326 19.5646 30.6133C26.0379 29.4485 30.6724 23.6327 30.8298 17.1574C30.8337 17.1069 30.8357 17.0578 30.8351 17.0066ZM20.8515 27.6642C16.3492 29.2779 11.2359 27.8634 8.19917 24.1725C5.20424 20.5288 4.84764 15.2303 7.25686 11.1928C9.65479 7.17985 14.4553 4.98048 19.0632 5.86102C24.4202 6.88634 28.2426 11.5886 28.3169 17.0066C28.2525 21.7222 25.3386 26.0558 20.8515 27.6642Z" fill="#3180FF"/>
<path d="M15.7263 10.3295V18.9178C15.7263 20.5381 18.2444 20.5408 18.2444 18.9178V10.3295C18.2444 8.7092 15.7263 8.70654 15.7263 10.3295Z" fill="#3180FF"/>
<path d="M16.9854 21.8224C15.3651 21.8224 15.3624 24.3405 16.9854 24.3405C18.6084 24.3405 18.6084 21.8224 16.9854 21.8224Z" fill="#3180FF"/>
</svg>
