<svg width="285" height="167" viewBox="0 0 285 167" fill="none" xmlns="http://www.w3.org/2000/svg">
<path d="M282.082 17.129L267.808 2.856C265.906 0.949999 263.715 0 261.238 0C258.767 0 256.577 0.949999 254.675 2.856L142.466 115.059L30.262 2.859C28.359 0.953001 26.169 0.00299835 23.695 0.00299835C21.22 0.00299835 19.03 0.953001 17.128 2.859L2.856 17.133C0.95 19.035 0 21.225 0 23.7C0 26.173 0.953 28.363 2.856 30.265L135.899 163.311C137.801 165.214 139.992 166.165 142.466 166.165C144.94 166.165 147.127 165.214 149.028 163.311L282.082 30.265C283.984 28.362 284.929 26.172 284.929 23.7C284.929 21.225 283.984 19.035 282.082 17.129Z" fill="#F9F9F9"/>
</svg>
