<svg width="34" height="34" viewBox="0 0 34 34" fill="none" xmlns="http://www.w3.org/2000/svg">
<path d="M10.625 15.9375V18.0625C10.625 18.6498 10.1498 19.125 9.5625 19.125H7.4375C6.8502 19.125 6.375 18.6498 6.375 18.0625V15.9375C6.375 15.3502 6.8502 14.875 7.4375 14.875H9.5625C10.1498 14.875 10.625 15.3502 10.625 15.9375ZM9.5625 23.375H7.4375C6.8502 23.375 6.375 23.8502 6.375 24.4375V26.5625C6.375 27.1498 6.8502 27.625 7.4375 27.625H9.5625C10.1498 27.625 10.625 27.1498 10.625 26.5625V24.4375C10.625 23.8502 10.1498 23.375 9.5625 23.375ZM18.0625 14.875H15.9375C15.3502 14.875 14.875 15.3502 14.875 15.9375V18.0625C14.875 18.6498 15.3502 19.125 15.9375 19.125H18.0625C18.6498 19.125 19.125 18.6498 19.125 18.0625V15.9375C19.125 15.3502 18.6498 14.875 18.0625 14.875ZM18.0625 23.375H15.9375C15.3502 23.375 14.875 23.8502 14.875 24.4375V26.5625C14.875 27.1498 15.3502 27.625 15.9375 27.625H18.0625C18.6498 27.625 19.125 27.1498 19.125 26.5625V24.4375C19.125 23.8502 18.6498 23.375 18.0625 23.375ZM26.5625 14.875H24.4375C23.8502 14.875 23.375 15.3502 23.375 15.9375V18.0625C23.375 18.6498 23.8502 19.125 24.4375 19.125H26.5625C27.1498 19.125 27.625 18.6498 27.625 18.0625V15.9375C27.625 15.3502 27.1498 14.875 26.5625 14.875ZM26.5625 23.375H24.4375C23.8502 23.375 23.375 23.8502 23.375 24.4375V26.5625C23.375 27.1498 23.8502 27.625 24.4375 27.625H26.5625C27.1498 27.625 27.625 27.1498 27.625 26.5625V24.4375C27.625 23.8502 27.1498 23.375 26.5625 23.375ZM7.4375 6.375H9.5625C10.1498 6.375 10.625 5.8998 10.625 5.3125V1.0625C10.625 0.475203 10.1498 0 9.5625 0H7.4375C6.8502 0 6.375 0.475203 6.375 1.0625V5.3125C6.375 5.8998 6.8502 6.375 7.4375 6.375ZM34 8.5V29.75C34 32.0971 32.0971 34 29.75 34H4.25C1.90294 34 0 32.0971 0 29.75V8.5C0 6.15294 1.90294 4.25 4.25 4.25H5.3125V5.3125C5.3125 6.48291 6.26603 7.4375 7.4375 7.4375H9.5625C10.734 7.4375 11.6875 6.48291 11.6875 5.3125V4.25H22.3125V5.3125C22.3125 6.48291 23.2671 7.4375 24.4375 7.4375H26.5625C27.7329 7.4375 28.6875 6.48291 28.6875 5.3125V4.25H29.75C32.0971 4.25 34 6.15294 34 8.5ZM31.875 12.75C31.875 11.5796 30.9225 10.625 29.75 10.625H4.25C3.07853 10.625 2.125 11.5796 2.125 12.75V29.75C2.125 30.9225 3.07853 31.875 4.25 31.875H29.75C30.9225 31.875 31.875 30.9225 31.875 29.75V12.75ZM24.4375 6.375H26.5625C27.1498 6.375 27.625 5.8998 27.625 5.3125V1.0625C27.625 0.475203 27.1498 0 26.5625 0H24.4375C23.8502 0 23.375 0.475203 23.375 1.0625V5.3125C23.375 5.8998 23.8502 6.375 24.4375 6.375Z" fill="black"/>
</svg>
