<svg width="50" height="50" viewBox="0 0 50 50" fill="none" xmlns="http://www.w3.org/2000/svg">
<path d="M25 45.3125C20.9826 45.3125 17.0554 44.1212 13.715 41.8892C10.3746 39.6573 7.77111 36.4849 6.23371 32.7733C4.6963 29.0616 4.29405 24.9775 5.07781 21.0372C5.86157 17.097 7.79615 13.4777 10.6369 10.6369C13.4777 7.79615 17.097 5.86157 21.0372 5.07781C24.9775 4.29405 29.0616 4.6963 32.7733 6.23371C36.4849 7.77111 39.6573 10.3746 41.8892 13.715C44.1212 17.0554 45.3125 20.9826 45.3125 25C45.3125 30.3872 43.1725 35.5538 39.3631 39.3631C35.5538 43.1725 30.3872 45.3125 25 45.3125ZM25 7.81251C21.6006 7.81251 18.2776 8.82054 15.4511 10.7091C12.6247 12.5977 10.4217 15.282 9.12083 18.4226C7.81995 21.5632 7.47958 25.0191 8.14276 28.3531C8.80595 31.6872 10.4429 34.7497 12.8466 37.1534C15.2503 39.5571 18.3128 41.1941 21.6469 41.8573C24.9809 42.5204 28.4368 42.1801 31.5774 40.8792C34.718 39.5783 37.4023 37.3753 39.2909 34.5489C41.1795 31.7224 42.1875 28.3994 42.1875 25C42.1875 20.4416 40.3767 16.0699 37.1534 12.8466C33.9301 9.62333 29.5584 7.81251 25 7.81251Z" fill="#F9F9F9"/>
<path d="M33.5938 35.1562C33.3881 35.1574 33.1843 35.118 32.9939 35.0403C32.8035 34.9625 32.6304 34.8479 32.4844 34.7031L23.8907 26.1094C23.7458 25.9634 23.6313 25.7902 23.5535 25.5999C23.4758 25.4095 23.4363 25.2056 23.4375 25V12.5C23.4375 12.0856 23.6021 11.6882 23.8952 11.3951C24.1882 11.1021 24.5856 10.9375 25 10.9375C25.4144 10.9375 25.8119 11.1021 26.1049 11.3951C26.3979 11.6882 26.5625 12.0856 26.5625 12.5V24.3594L34.7031 32.4844C34.8496 32.6296 34.9658 32.8024 35.0452 32.9928C35.1245 33.1833 35.1653 33.3875 35.1653 33.5938C35.1653 33.8 35.1245 34.0042 35.0452 34.1947C34.9658 34.3851 34.8496 34.5579 34.7031 34.7031C34.5571 34.8479 34.384 34.9625 34.1936 35.0403C34.0033 35.118 33.7994 35.1574 33.5938 35.1562Z" fill="#F9F9F9"/>
</svg>
