<svg width="31" height="31" viewBox="0 0 31 31" fill="none" xmlns="http://www.w3.org/2000/svg">
<path d="M27.125 14.2084C27.125 22.8625 21.5708 22.475 20.925 22.475C20.15 22.475 19.5042 22.3459 18.8583 21.9584C18.3417 21.5709 17.825 21.1834 17.5667 20.5375C17.05 21.1834 16.5333 21.7 15.8875 21.9584C15.2417 22.3459 14.5958 22.475 13.8208 22.475C13.175 22.475 12.5292 22.3459 12.0125 22.0875C11.4958 21.8292 10.9792 21.3125 10.7208 20.7959C10.3333 20.2792 10.075 19.6334 9.94583 18.8584C9.81667 18.0834 9.81667 17.1792 9.81667 16.275C9.94583 15.1125 10.2042 14.0792 10.5917 13.0459C10.9792 12.1417 11.4958 11.2375 12.0125 10.5917C12.5292 9.94587 13.175 9.42921 13.95 9.04171C14.725 8.65421 15.5 8.52504 16.275 8.52504C18.8583 8.52504 20.2792 9.81671 20.5375 10.075L19.8917 18.0834C19.8917 18.6 19.6333 20.4084 21.3125 20.4084C21.8292 20.4084 24.4125 19.7625 24.4125 14.3375C24.4125 14.2084 25.575 5.29587 15.8875 5.29587C8.1375 5.16671 6.45833 12.7875 6.45833 15.5C6.45833 26.35 13.3042 25.8334 15.5 25.8334C18.0833 25.8334 19.5042 25.3167 19.7625 25.1875L20.2792 27.5125C20.0208 27.7709 18.7292 28.4167 15.5 28.4167C11.4958 28.4167 3.875 28.2875 3.875 15.5C3.875 13.6917 4.90833 2.58337 16.1458 2.58337C26.8667 2.58337 27.125 12.4 27.125 14.2084ZM13.0458 16.275C12.9167 17.4375 13.0458 18.4709 13.3042 19.1167C13.5625 19.7625 14.0792 20.0209 14.8542 20.0209C16.275 20.0209 17.05 18.2125 17.1792 17.6959L17.825 11.1084C17.6958 11.1084 16.9208 10.9792 16.6625 10.9792C15.6292 10.9792 14.725 11.4959 14.2083 12.4C13.5625 13.175 13.175 14.4667 13.0458 16.275Z" fill="#3180FF"/>
</svg>
