<svg width="36" height="36" viewBox="0 0 36 36" fill="none" xmlns="http://www.w3.org/2000/svg">
<path d="M31.3522 7.67025L28.8952 5.21663C28.6415 4.96294 28.3079 4.83582 27.9749 4.83582C27.6419 4.83582 27.3089 4.96238 27.0552 5.21607L25.0898 7.17582L29.3868 11.4654L31.3522 9.50625C31.8601 8.99888 31.8601 8.17594 31.3522 7.67025Z" fill="black"/>
<path d="M12.332 19.9102L16.6295 24.2004L28.4673 12.3845L24.1698 8.09436L12.332 19.9102Z" fill="black"/>
<path d="M11.4038 20.8282L10.4863 26.0325L15.7013 25.1179L11.4038 20.8282Z" fill="black"/>
<path d="M23.284 28.3517H7.08064V12.1483H18.5157L21.3338 9.33582H6.0867C5.08602 9.33582 4.26758 10.1543 4.26758 11.1549V29.3456C4.26758 30.3463 5.08602 31.1648 6.0867 31.1648H24.2774C25.2781 31.1648 26.0965 30.3463 26.0965 29.3456V16.3401L23.284 19.1475V28.3517Z" fill="#3180FF"/>
</svg>
