<svg width="40" height="40" viewBox="0 0 40 40" fill="none" xmlns="http://www.w3.org/2000/svg">
<path d="M20 21.5385C20.8497 21.5385 21.5385 20.8497 21.5385 20C21.5385 19.1503 20.8497 18.4615 20 18.4615C19.1503 18.4615 18.4615 19.1503 18.4615 20C18.4615 20.8497 19.1503 21.5385 20 21.5385Z" fill="#818181"/>
<path d="M20 13.8462C16.6154 13.8462 13.8461 16.6154 13.8461 20C13.8461 23.3846 16.6154 26.1539 20 26.1539C23.3846 26.1539 26.1538 23.3846 26.1538 20C26.1538 16.6154 23.3846 13.8462 20 13.8462ZM20 24.6154C17.3846 24.6154 15.3846 22.6154 15.3846 20C15.3846 17.3846 17.3846 15.3846 20 15.3846C22.6154 15.3846 24.6154 17.3846 24.6154 20C24.6154 22.6154 22.6154 24.6154 20 24.6154Z" fill="#818181"/>
<path d="M20 9.23077C6.15385 9.23077 0 20 0 20C0 20 6.15385 30.7692 20 30.7692C33.8462 30.7692 40 20 40 20C40 20 33.8462 9.23077 20 9.23077ZM20 29.2308C7.69231 29.2308 1.84615 20 1.84615 20C1.84615 20 7.69231 10.7692 20 10.7692C32.3077 10.7692 38.1538 20 38.1538 20C38.1538 20 32.3077 29.2308 20 29.2308Z" fill="#818181"/>
</svg>
