<svg width="498" height="456" viewBox="0 0 498 456" fill="none" xmlns="http://www.w3.org/2000/svg">
<g clip-path="url(#clip0_302_74)">
<path d="M97.5 342.351C30.6 302.15 0 248.65 0 248.65C0 248.65 76.5 114.75 248.6 114.75C273.5 114.75 296.4 116.65 317.4 122.35L302.099 137.65C284.9 135.75 267.699 133.85 248.599 133.85C95.599 133.85 22.899 248.65 22.899 248.65C22.899 248.65 51.599 294.55 110.899 328.95L97.5 342.351ZM172.1 248.65C172.1 254.35 172.1 260.15 174 265.85L191.2 248.65C191.2 233.35 196.9 219.95 208.4 208.45C219.9 196.95 235.2 191.25 248.6 191.25L265.801 174.05C260.1 172.15 254.301 172.15 248.6 172.15C206.5 172.15 172.1 206.55 172.1 248.65ZM399.699 154.95L386.301 168.35C445.6 202.75 474.301 248.65 474.301 248.65C474.301 248.65 401.6 363.45 248.6 363.45C229.5 363.45 212.3 361.551 195.1 359.65L179.8 374.95C200.8 380.65 223.8 382.551 248.7 382.551C420.801 382.551 497.301 248.651 497.301 248.651C497.301 248.651 466.6 195.15 399.699 154.95ZM401.4 76.95L76.9 401.45L95.8 420.35L420.4 95.75L401.4 76.95ZM288.801 288.851C277.301 300.351 263.901 306.051 248.6 306.051L231.4 323.25C237.1 325.15 242.9 325.15 248.6 325.15C290.699 325.15 325.1 290.75 325.1 248.65C325.1 242.95 325.1 237.15 323.2 231.45L306 248.65C306 263.95 300.199 277.351 288.801 288.851Z" fill="#818181"/>
</g>
<defs>
<clipPath id="clip0_302_74">
<rect width="497.301" height="497.301" fill="white"/>
</clipPath>
</defs>
</svg>
