<svg width="21" height="21" viewBox="0 0 21 21" fill="none" xmlns="http://www.w3.org/2000/svg">
<path d="M10.5 17.1818H3.81818V18.1363H10.5V17.1818Z" fill="#F5F5F5"/>
<path d="M17.1818 17.1818V18.1364H19.0909V0H4.77274V1.90909H5.72728V0.954545H18.1364V17.1818H17.1818Z" fill="#F5F5F5"/>
<path d="M14.3182 14.3182H3.81818V15.2728H14.3182V14.3182Z" fill="#F5F5F5"/>
<path d="M1.90909 3.0641V20.7996C1.90909 20.9103 1.99691 21 2.10572 21H16.0297C16.1395 21 16.2273 20.9112 16.2273 20.7996V3.0641C16.2273 2.95337 16.1395 2.86365 16.0306 2.86365H2.10572C1.99691 2.86365 1.90909 2.95242 1.90909 3.0641ZM2.86363 3.81819H15.2727V20.0455H2.86363V3.81819Z" fill="#F5F5F5"/>
<path d="M14.3182 5.72729H3.81818V6.68184H14.3182V5.72729Z" fill="#F5F5F5"/>
<path d="M14.3182 8.59094H3.81818V9.54549H14.3182V8.59094Z" fill="#F5F5F5"/>
<path d="M14.3182 11.4546H3.81818V12.4091H14.3182V11.4546Z" fill="#F5F5F5"/>
</svg>
