<svg width="32" height="32" viewBox="0 0 32 32" fill="none" xmlns="http://www.w3.org/2000/svg">
<path d="M17 31H15C14.263 31.0053 13.5498 30.7391 12.9964 30.2522C12.4431 29.7653 12.0884 29.0917 12 28.36C11.3289 28.1479 10.6767 27.8803 10.05 27.56C9.46973 28.0188 8.74041 28.247 8.00212 28.2009C7.26382 28.1547 6.5686 27.8375 6.04999 27.31L4.68999 25.9C4.16249 25.3813 3.8452 24.6861 3.79905 23.9478C3.75291 23.2095 3.98117 22.4802 4.43999 21.9C4.12219 21.2894 3.85464 20.654 3.63999 20C2.90826 19.9115 2.23469 19.5568 1.74777 19.0035C1.26085 18.4502 0.994663 17.737 0.999987 17V15C0.994663 14.2629 1.26085 13.5497 1.74777 12.9964C2.23469 12.4431 2.90826 12.0884 3.63999 12C3.85208 11.3289 4.11967 10.6766 4.43999 10.05C3.98117 9.4697 3.75291 8.74038 3.79905 8.00209C3.8452 7.26379 4.16249 6.56857 4.68999 6.04996L6.09999 4.68996C6.6186 4.16246 7.31382 3.84517 8.05212 3.79902C8.79041 3.75288 9.51973 3.98114 10.1 4.43996C10.7106 4.12216 11.346 3.85461 12 3.63996C12.0884 2.90823 12.4431 2.23466 12.9964 1.74774C13.5498 1.26082 14.263 0.994633 15 0.999956H17C17.737 0.994633 18.4502 1.26082 19.0035 1.74774C19.5569 2.23466 19.9116 2.90823 20 3.63996C20.6711 3.85204 21.3233 4.11964 21.95 4.43996C22.5302 3.98114 23.2596 3.75288 23.9979 3.79902C24.7362 3.84517 25.4314 4.16246 25.95 4.68996L27.31 6.09996C27.8375 6.61857 28.1548 7.31379 28.2009 8.05208C28.2471 8.79038 28.0188 9.5197 27.56 10.1C27.8803 10.7266 28.1479 11.3789 28.36 12.05C29.0832 12.1373 29.7499 12.4849 30.2356 13.0277C30.7214 13.5705 30.9931 14.2715 31 15V17C31.0053 17.737 30.7391 18.4502 30.2522 19.0035C29.7653 19.5568 29.0917 19.9115 28.36 20C28.1479 20.671 27.8803 21.3233 27.56 21.95C28.0188 22.5302 28.2471 23.2595 28.2009 23.9978C28.1548 24.7361 27.8375 25.4313 27.31 25.95L25.9 27.31C25.3814 27.8375 24.6862 28.1547 23.9479 28.2009C23.2096 28.247 22.4802 28.0188 21.9 27.56C21.2733 27.8803 20.6211 28.1479 19.95 28.36C19.8626 29.0831 19.5151 29.7498 18.9723 30.2356C18.4294 30.7214 17.7284 30.9931 17 31ZM9.90999 25.33C10.0899 25.3269 10.2669 25.3754 10.42 25.47C11.3042 25.99 12.2567 26.3838 13.25 26.64C13.47 26.6966 13.6642 26.8266 13.8005 27.0083C13.9368 27.1901 14.0072 27.4129 14 27.64V28C14 28.2652 14.1053 28.5195 14.2929 28.7071C14.4804 28.8946 14.7348 29 15 29H17C17.2652 29 17.5196 28.8946 17.7071 28.7071C17.8946 28.5195 18 28.2652 18 28V27.61C17.9928 27.3829 18.0632 27.1601 18.1995 26.9783C18.3358 26.7966 18.53 26.6666 18.75 26.61C19.7433 26.3538 20.6958 25.96 21.58 25.44C21.77 25.3281 21.9917 25.2821 22.2105 25.3092C22.4293 25.3363 22.6331 25.435 22.79 25.59L23.07 25.87C23.1629 25.9637 23.2736 26.0381 23.3954 26.0888C23.5173 26.1396 23.648 26.1658 23.78 26.1658C23.912 26.1658 24.0427 26.1396 24.1646 26.0888C24.2864 26.0381 24.397 25.9637 24.49 25.87L25.9 24.46C25.9937 24.367 26.0681 24.2564 26.1189 24.1345C26.1696 24.0127 26.1958 23.882 26.1958 23.75C26.1958 23.6179 26.1696 23.4872 26.1189 23.3654C26.0681 23.2435 25.9937 23.1329 25.9 23.04L25.62 22.76C25.4651 22.603 25.3664 22.3993 25.3392 22.1805C25.3121 21.9616 25.3581 21.74 25.47 21.55C25.99 20.6658 26.3838 19.7132 26.64 18.72C26.6967 18.4999 26.8266 18.3058 27.0084 18.1695C27.1901 18.0331 27.4129 17.9628 27.64 17.97H28C28.2652 17.97 28.5196 17.8646 28.7071 17.6771C28.8946 17.4895 29 17.2352 29 16.97V15C29 14.7347 28.8946 14.4804 28.7071 14.2928C28.5196 14.1053 28.2652 14 28 14H27.61C27.3829 14.0071 27.1601 13.9368 26.9784 13.8005C26.7966 13.6641 26.6667 13.47 26.61 13.25C26.3538 12.2567 25.96 11.3041 25.44 10.42C25.3281 10.23 25.2821 10.0083 25.3092 9.78945C25.3364 9.57062 25.4351 9.36689 25.59 9.20996L25.87 8.92996C25.9637 8.83699 26.0381 8.72639 26.0889 8.60453C26.1396 8.48267 26.1658 8.35197 26.1658 8.21996C26.1658 8.08794 26.1396 7.95724 26.0889 7.83538C26.0381 7.71352 25.9637 7.60292 25.87 7.50996L24.49 6.09996C24.397 6.00623 24.2864 5.93183 24.1646 5.88106C24.0427 5.8303 23.912 5.80416 23.78 5.80416C23.648 5.80416 23.5173 5.8303 23.3954 5.88106C23.2736 5.93183 23.1629 6.00623 23.07 6.09996L22.79 6.37996C22.6331 6.53487 22.4293 6.63357 22.2105 6.6607C21.9917 6.68782 21.77 6.64186 21.58 6.52996C20.6958 6.00991 19.7433 5.6161 18.75 5.35996C18.53 5.30327 18.3358 5.17335 18.1995 4.99158C18.0632 4.80982 17.9928 4.58705 18 4.35996V3.99996C18 3.73474 17.8946 3.48039 17.7071 3.29285C17.5196 3.10531 17.2652 2.99996 17 2.99996H15C14.7348 2.99996 14.4804 3.10531 14.2929 3.29285C14.1053 3.48039 14 3.73474 14 3.99996V4.38996C14.0072 4.61705 13.9368 4.83982 13.8005 5.02158C13.6642 5.20335 13.47 5.33327 13.25 5.38996C12.2567 5.6461 11.3042 6.03991 10.42 6.55996C10.23 6.67186 10.0083 6.71782 9.78948 6.6907C9.57065 6.66357 9.36692 6.56487 9.20999 6.40996L8.92999 6.09996C8.83702 6.00623 8.72642 5.93183 8.60456 5.88106C8.4827 5.8303 8.352 5.80416 8.21999 5.80416C8.08798 5.80416 7.95727 5.8303 7.83541 5.88106C7.71355 5.93183 7.60295 6.00623 7.50999 6.09996L6.09999 7.50996C6.00626 7.60292 5.93186 7.71352 5.8811 7.83538C5.83033 7.95724 5.80419 8.08794 5.80419 8.21996C5.80419 8.35197 5.83033 8.48267 5.8811 8.60453C5.93186 8.72639 6.00626 8.83699 6.09999 8.92996L6.37999 9.20996C6.5349 9.36689 6.6336 9.57062 6.66073 9.78945C6.68785 10.0083 6.64189 10.23 6.52999 10.42C6.00994 11.3041 5.61613 12.2567 5.35999 13.25C5.3033 13.47 5.17338 13.6641 4.99161 13.8005C4.80985 13.9368 4.58708 14.0071 4.35999 14H3.99999C3.73477 14 3.48042 14.1053 3.29288 14.2928C3.10534 14.4804 2.99999 14.7347 2.99999 15V17C2.99999 17.2652 3.10534 17.5195 3.29288 17.7071C3.48042 17.8946 3.73477 18 3.99999 18H4.38999C4.61708 17.9928 4.83985 18.0631 5.02161 18.1995C5.20338 18.3358 5.3333 18.5299 5.38999 18.75C5.64613 19.7432 6.03994 20.6958 6.55999 21.58C6.67189 21.77 6.71785 21.9916 6.69073 22.2105C6.6636 22.4293 6.5649 22.633 6.40999 22.79L6.12999 23.07C6.03626 23.1629 5.96186 23.2735 5.9111 23.3954C5.86033 23.5172 5.83419 23.6479 5.83419 23.78C5.83419 23.912 5.86033 24.0427 5.9111 24.1645C5.96186 24.2864 6.03626 24.397 6.12999 24.49L7.50999 25.9C7.60295 25.9937 7.71355 26.0681 7.83541 26.1188C7.95727 26.1696 8.08798 26.1958 8.21999 26.1958C8.352 26.1958 8.4827 26.1696 8.60456 26.1188C8.72642 26.0681 8.83702 25.9937 8.92999 25.9L9.20999 25.62C9.39625 25.4352 9.64765 25.3311 9.90999 25.33Z" fill="#3180FF"/>
<path d="M16 23C14.6155 23 13.2621 22.5895 12.111 21.8203C10.9598 21.0511 10.0626 19.9579 9.53282 18.6788C9.003 17.3997 8.86438 15.9922 9.13448 14.6344C9.40457 13.2765 10.0713 12.0292 11.0502 11.0503C12.0292 10.0713 13.2765 9.4046 14.6343 9.13451C15.9922 8.86441 17.3997 9.00303 18.6788 9.53285C19.9578 10.0627 21.0511 10.9599 21.8203 12.111C22.5894 13.2622 23 14.6155 23 16C23 17.8565 22.2625 19.637 20.9497 20.9497C19.637 22.2625 17.8565 23 16 23ZM16 11C15.0111 11 14.0444 11.2932 13.2221 11.8427C12.3999 12.3921 11.759 13.173 11.3806 14.0866C11.0021 15.0002 10.9031 16.0056 11.096 16.9755C11.289 17.9454 11.7652 18.8363 12.4644 19.5355C13.1637 20.2348 14.0546 20.711 15.0245 20.9039C15.9944 21.0969 16.9998 20.9978 17.9134 20.6194C18.827 20.241 19.6079 19.6001 20.1573 18.7779C20.7067 17.9556 21 16.9889 21 16C21 14.6739 20.4732 13.4022 19.5355 12.4645C18.5978 11.5268 17.3261 11 16 11Z" fill="#3180FF"/>
</svg>
