<svg width="34" height="34" viewBox="0 0 34 34" fill="none" xmlns="http://www.w3.org/2000/svg">
<path d="M28.1488 20.2418C29.2953 19.293 30.0465 17.8302 30.0465 16.2093C30.0465 13.4813 27.8326 11.0697 25.3023 11.0697C22.7721 11.0697 20.5581 13.4813 20.5581 16.2093C20.5581 17.8302 21.3093 19.293 22.4558 20.2418C21.9419 20.4395 21.4674 20.6372 20.993 20.9139C19.4907 19.1348 17.514 17.7511 15.2209 17.079C16.9605 15.8534 18.186 13.7581 18.186 11.4651C18.186 7.8674 15.2209 4.74414 11.8605 4.74414C8.5 4.74414 5.53488 7.8674 5.53488 11.4651C5.53488 13.7581 6.76047 15.8534 8.5 17.079C3.59767 18.5418 0 23.0883 0 28.4651C0 28.9 0.355814 29.2558 0.790698 29.2558H33.2093C33.6442 29.2558 34 28.9 34 28.4651C34 24.6697 31.5488 21.4279 28.1488 20.2418ZM22.1395 16.2093C22.1395 14.5488 23.5233 12.6511 25.3023 12.6511C27.0814 12.6511 28.4651 14.5488 28.4651 16.2093C28.4651 17.8697 27.0814 19.7674 25.3023 19.7674C23.5233 19.7674 22.1395 17.8697 22.1395 16.2093ZM7.11628 11.4651C7.11628 9.05344 9.13256 6.32554 11.8605 6.32554C14.5884 6.32554 16.6047 9.05344 16.6047 11.4651C16.6047 13.8767 14.5884 16.6046 11.8605 16.6046C9.13256 16.6046 7.11628 13.8767 7.11628 11.4651ZM1.62093 27.6744C2.01628 22.3767 6.48372 18.186 11.8605 18.186C17.2767 18.186 21.7047 22.3767 22.1 27.6744H1.62093ZM23.6814 27.6744C23.5628 25.6976 22.9302 23.8 21.9023 22.2186C22.9302 21.6651 24.0767 21.3488 25.3023 21.3488C28.9791 21.3488 31.9837 24.1162 32.3791 27.6744H23.6814Z" fill="#3180FF"/>
</svg>
